# xmcd
#
# Track frame offsets: 
#        150
#        20144
#        42216
#        48910
#        76517
#        97331
#        117401
#        121792
#        146778
#        165461
#        189309
#        210078
#        236997
#        242682
#        261755
#        268181
#
# Disc length: 3944 seconds
#
# Revision: 0
# Processed by: cddbd v1.5.2PL0 Copyright (c) Steve Scherf et al.
# Submitted via: ExactAudioCopyFreeDBPlugin 1.0
#
DISCID=da0f6610
DTITLE=AmeriCamera - High Minded
DYEAR=2010
DGENRE=Blues
TTITLE0=Right Turn (on a Wrong Way Street)
TTITLE1=If Anybody Could
TTITLE2=Swing Low
TTITLE3=Broken Angel
TTITLE4=No Shortcut to the Promised Land
TTITLE5=Twistin' in the Whirlwind
TTITLE6=You'll Be Sorry
TTITLE7=Mississippi More or Less
TTITLE8=High Minded
TTITLE9=Elvis and Eliot
TTITLE10=Can't Come Too Soon
TTITLE11=St. Jerome
TTITLE12=Lucky Little Devil
TTITLE13=Third Time's the Charm
TTITLE14=Compound Light
TTITLE15=Blues for Tokyo Rose
EXTD=
EXTT0=
EXTT1=
EXTT2=
EXTT3=
EXTT4=
EXTT5=
EXTT6=
EXTT7=
EXTT8=
EXTT9=
EXTT10=
EXTT11=
EXTT12=
EXTT13=
EXTT14=
EXTT15=
PLAYORDER=
